<svg width="60" height="58" viewBox="0 0 60 58" fill="none" xmlns="http://www.w3.org/2000/svg">
<ellipse cx="30" cy="29.1294" rx="30" ry="28.5882" fill="#5359DC"/>
<path d="M22.7231 42V18.5391H29.3457C31.3867 18.5391 33.1914 18.9902 34.7598 19.8926C36.3281 20.7949 37.5366 22.0786 38.3853 23.7437C39.2446 25.4087 39.6797 27.3208 39.6904 29.48V30.9785C39.6904 33.1914 39.2607 35.1304 38.4014 36.7954C37.5527 38.4604 36.3335 39.7388 34.7437 40.6304C33.1646 41.522 31.3223 41.9785 29.2168 42H22.7231ZM25.8169 21.085V39.4702H29.0718C31.4565 39.4702 33.3096 38.729 34.6309 37.2466C35.9629 35.7642 36.6289 33.6533 36.6289 30.9141V29.5444C36.6289 26.8804 36.0005 24.8125 34.7437 23.3408C33.4976 21.8584 31.7251 21.1064 29.4263 21.085H25.8169Z" fill="white"/>
</svg>
